<svg xmlns="http://www.w3.org/2000/svg" version="1.1" xmlns:xlink="http://www.w3.org/1999/xlink" xmlns:svgjs="http://svgjs.dev/svgjs" width="100%" height="100%" viewBox="0 0 1000 600"><rect width="1000" height="600" x="0" y="0" fill="#f4efea"/><g><circle r="166.66666666666666" cx="391.4338022867838" cy="413.65604690151906" fill="#7d141d" transform="matrix(0.556131036927318,0,0,0.556131036927318,0,69.95301870576756)"/><path d="M286.6448863008912 486.9028009679184L286.6448863008912 486.9028009679184Q286.24266896419397 486.70169229956974 285.0360169541024 485.49504028947825Q283.8293649440109 484.2596584696226 283.6282562756623 483.6563324645768L283.6282562756623 483.6563324645768Q282.62271293391933 470.1245920656929 284.23158228070804 456.07571509105554Q285.8404516274968 442.0555679261822 287.56424021334186 427.92050152225255Q289.2880287991869 413.7567053085588 289.69024613588414 399.82274757297773Q290.09246347258136 385.8887898373967 286.6448863008912 372.3570494385128L286.6448863008912 372.3570494385128L285.0360169541024 366.09395090994235L266.04561270004245 366.09395090994235Q264.2356346849051 366.09395090994235 263.63230867985936 364.5712709924459Q263.02898267481356 363.07732088471346 263.02898267481356 361.1524236305198Q263.02898267481356 359.22752637632607 263.517389440803 357.4175483611888Q264.0345260165565 355.5788405362873 264.4367433532537 354.774405862893L264.4367433532537 354.774405862893Q264.8389606899509 354.3721885261958 265.3560972657044 353.76886252115Q265.8445040316939 353.1655365161042 266.04561270004245 353.1655365161042L266.04561270004245 353.1655365161042L285.0360169541024 353.1655365161042L285.0360169541024 342.0471001374035Q285.0360169541024 338.4271441071288 286.7598055399475 339.3177682098154Q288.4835941257926 340.2371221222661 290.4946808092785 342.7653453815056Q292.50576749276445 345.29356864074504 294.34447531766585 348.2240092366817Q296.1544533328032 351.1544498326183 296.1544533328032 351.55666716931546L296.1544533328032 351.55666716931546Q307.0717810431554 353.1655365161042 317.87418951445125 353.2804557551606Q328.67659798574704 353.36664518445286 339.39281702775065 352.44729127200213Q350.08030625999015 351.55666716931546 360.7965253019937 350.033987251819Q371.51274434399727 348.5113073343225 382.20023357623677 346.9024379875338L382.20023357623677 346.9024379875338Q383.40688558632837 346.7013293191852 385.331782840522 347.7068726609282Q387.2566800947157 348.71241600267115 388.7793600122122 350.2350959201676Q390.27331011994454 351.7577758376641 390.90536593475446 353.48156442350916Q391.5086919398002 355.17662319959015 390.072201451596 356.6131136877944L390.072201451596 356.6131136877944Q386.4522454213213 360.23306971806903 379.5858208877051 361.8419390648578Q372.7193963540888 363.4795382214106 364.01426399557124 363.8817555581078Q355.3378614468176 364.283972894805 345.5409963172647 364.0828642264564Q335.7441311877119 363.8817555581078 326.5505920632048 363.68064688975926Q317.3570529386977 363.4795382214106 309.37016582428214 363.8817555581078Q301.4120085196307 364.283972894805 296.1544533328032 366.09395090994235L296.1544533328032 366.09395090994235Q296.55667066950036 380.6312346505692 296.24064276209543 395.0823289619038Q295.95334466445456 409.5334232732384 295.43620808870105 424.0707070138652Q294.9478013227116 438.60799075449205 294.6317734153067 453.05908506582665Q294.34447531766585 467.51017937716125 294.7466926543631 482.047463117788L294.7466926543631 482.047463117788L291.5002241510215 488.51167031470715Q291.29911548267285 488.9138876514043 289.48913746753556 488.19564240730216Q287.6791594523982 487.5061269729642 286.6448863008912 486.9028009679184ZM302.6186605297222 413.55559664021024L302.6186605297222 413.55559664021024Q302.21644319302504 413.55559664021024 301.69930661727153 412.95227063516444Q301.2108998512821 412.34894463011864 301.0097911829335 412.14783596177006L301.0097911829335 412.14783596177006Q301.8142258563279 409.93564060993555 303.0208778664194 407.29249811163976Q304.22752987651097 404.67808542310803 306.0375078916483 403.0692160763193Q307.8762157165497 401.46034672953056 310.20333030744064 401.3454274904742Q312.5017150885674 401.2305082514179 315.54707492356033 404.0747594180623L315.54707492356033 404.0747594180623Q318.16148761209206 404.27586808641087 324.94172271641605 403.4714334130165Q331.69322801097593 402.6669987396221 340.3983603694936 401.54653615882285Q349.0747629182472 400.42607357802353 358.5843299501592 399.219421567932Q368.06516717230716 398.0127695578404 376.1382437160149 397.20833488444606Q384.2400500694868 396.4039002110517 389.8710927832474 396.4900896403439Q395.53086530677206 396.60500887940026 396.536408648515 397.8116608894918L396.536408648515 397.8116608894918Q398.17400780506784 400.0238562413263 395.53086530677206 402.26478140292494Q392.9164526182404 404.47697675475945 387.4577887630643 406.4880634382454Q381.99912490788824 408.5278799314954 374.3282657008776 410.22293870757636Q366.657406493867 411.9467272934215 358.1533828036979 413.26829854256937Q349.67808892329293 414.58986979171726 340.886767135483 415.39430446511165Q332.09544534767315 416.198739138506 324.5395053797189 416.28492856779826Q316.9548356020005 416.3998478068546 311.09395441012725 415.7965218018088Q305.23307321825394 415.19319579676306 302.6186605297222 413.55559664021024ZM437.9647943283251 485.49504028947825L437.9647943283251 485.49504028947825Q428.25411862806453 482.6507891228338 421.78991143114547 476.30150116497117Q415.32570423422646 469.92348339734434 411.50463953560313 461.24708084859077Q407.65484502721586 452.54194849007314 406.2470843487756 442.0555679261822Q404.8393236703355 431.54045755252724 405.4426496753813 420.53694041288276Q406.0459756804271 409.5334232732384 408.4592797006102 398.3287974652453Q410.90131353055733 387.09544184748825 414.6361887998884 377.0974680495868Q418.3710640692194 367.0994942516853 423.11148268029336 358.9114984689212Q427.8519012913673 350.75223249592113 433.3105651465434 345.29356864074504L433.3105651465434 345.29356864074504Q438.56812033337087 340.0360134539176 443.2223495151526 339.0304701121746Q447.84784888717024 338.02492677043165 451.69764339555763 339.7199855465126Q455.5474379039449 341.4437741323577 458.56406792917386 345.4946773090936Q461.58069795440275 349.5168506760655 463.41940577930416 354.28599909690354Q465.22938379444145 359.02641770797754 465.746520370195 363.9679449874001Q466.23492713618447 368.9094722668226 465.14319436514927 372.5581581068614Q464.02273178434996 376.20684394690016 461.2933998567619 378.10301139132974Q458.56406792917386 380.0279086455234 453.90983874739214 378.62014796708326L453.90983874739214 378.62014796708326Q451.69764339555763 376.0057352785516 452.61699730800837 371.9548321018156Q453.5076214106949 367.9039289250797 454.42697532314565 363.7668363190515Q455.3463292355964 359.6297437130233 454.8291926598429 355.8948684436923Q454.3120560840893 352.15999317436126 449.28433937537443 350.14890649087533L449.28433937537443 350.14890649087533Q444.2278928568956 348.10908999762535 439.7747723434625 351.1544498326183Q435.32165183002934 354.1710798578472 431.58677656069835 360.7502062938226Q427.8519012913673 367.3006029200339 424.9214606954307 376.494142044541Q421.9910200994941 385.68768116904806 419.9799334160081 395.8867636352981Q417.9688467325222 406.0858461015482 417.04949282007146 416.6009564752032Q416.1301389076208 427.0873370390941 416.24505814667714 436.2808761636012Q416.33124757596937 445.4744152881083 417.7677380641736 452.54194849007314Q419.17549874261374 459.638211501802 421.9910200994941 463.0570588637281L421.9910200994941 463.0570588637281Q426.2430319445786 468.113505382207 431.1845592240012 470.9290267390873Q436.1548163131878 473.7732779057317 441.5847503585998 474.9799299158232Q447.04341421377586 476.1865819259148 453.01921464470547 476.1865819259148Q458.966285265871 476.1865819259148 465.0282751260929 475.7843645892176L465.0282751260929 475.7843645892176Q472.09580832805773 475.3821472525204 477.95668951993105 472.4517066565838Q483.81757071180425 469.5212660606472 489.27623456698035 465.8725802206084Q494.73489842215645 462.25262419033373 499.9637237992199 458.71885758935133Q505.2212789860473 455.1850909883689 511.2832688462692 453.57622164158016L511.2832688462692 453.57622164158016Q518.7530193849312 451.33529647998154 519.6723732973819 453.863519739221Q520.5917272098327 456.3917429984605 516.4259047940404 461.0459721802422Q512.2888121880122 465.6714715522598 504.12954621501217 471.4461633148408Q495.94155043224805 477.1921252676578 485.2253313902444 481.4441371127423Q474.5091123482408 485.69614895782684 462.29894319850484 487.30501830461554Q450.08877404876887 488.9138876514043 437.9647943283251 485.49504028947825Z " fill="#f4efea" transform="matrix(0.556131036927318,0,0,0.556131036927318,0,69.95301870576756)"/><path d="M664.4571582372396 486.8640005060153L664.4571582372396 486.8640005060153Q664.065032626527 486.667937700659 662.8886557943896 485.49156086852156Q661.7122789622521 484.2871750641903 661.5162161568958 483.69898664812155L661.5162161568958 483.69898664812155Q660.5359021301147 470.5067607448654 662.1044045729645 456.81037334212175Q663.6729070158146 443.1419949115718 665.3534453474396 429.3615805922469Q667.0339836790645 415.5531573007283 667.4261092897771 401.9688057867596Q667.8182349004895 388.38445427279095 664.4571582372396 375.1922283695348L664.4571582372396 375.1922283695348L662.8886557943896 369.08627243129735L644.3747251743209 369.08627243129735Q642.6101599261146 369.08627243129735 642.0219715100459 367.6017969050286Q641.4337830939772 366.1453303509536 641.4337830939772 364.2687292139724Q641.4337830939772 362.3921280769912 641.909935621271 360.6275628287849Q642.4140971207585 358.83498860838495 642.8062227314709 358.05073738695995L642.8062227314709 358.05073738695995Q643.1983483421834 357.6586117762474 643.7025098416709 357.07042336017867Q644.1786623689648 356.4822349441099 644.3747251743209 356.4822349441099L644.3747251743209 356.4822349441099L662.8886557943896 356.4822349441099L662.8886557943896 345.6427627051288Q662.8886557943896 342.1136322087163 664.5691941260145 342.98191034672254Q666.2497324576395 343.8781974569225 668.210360511202 346.3429870099725Q670.1709885647645 348.80777656302246 671.9635627851645 351.664691726785Q673.7281280333707 354.52160689054745 673.7281280333707 354.9137325012599L673.7281280333707 354.9137325012599Q684.3715374669957 356.4822349441099 694.9029110118456 356.59427083288494Q705.4342845566955 356.6782977494662 715.8816311849641 355.7820106392662Q726.3009688410391 354.9137325012599 736.7483154693078 353.4292569749912Q747.1956620975766 351.9447814487225 757.6149997536515 350.37627900587245L757.6149997536515 350.37627900587245Q758.7913765857888 350.18021620051627 760.6679777227703 351.1605302272975Q762.5445788597515 352.14084425407873 764.0290543860201 353.62531978034747Q765.4855209400951 355.1097953066162 766.1017183283577 356.7903336382412Q766.6899067444263 358.4428629976724 765.2894581347389 359.8433116073599L765.2894581347389 359.8433116073599Q761.7603276383263 363.3724421037724 755.0661832840201 364.9409445466224Q748.3720389297139 366.5374559616661 739.8853203550077 366.9295815723786Q731.4266107524954 367.3217071830911 721.8755512344267 367.12564437773483Q712.3244917163579 366.9295815723786 703.3616206143581 366.73351876702236Q694.3987495123581 366.5374559616661 686.6122552424956 366.9295815723786Q678.853769944827 367.3217071830911 673.7281280333707 369.08627243129735L673.7281280333707 369.08627243129735Q674.1202536440833 383.2588123613348 673.812154949952 397.3473253747909Q673.5320652280145 411.4358383882471 673.027903728527 425.60837831828445Q672.5517512012332 439.7809182483218 672.2436525071021 453.869431261778Q671.9635627851645 467.9579442752342 672.355688395877 482.13048420527156L672.355688395877 482.13048420527156L669.1906745379833 488.4325029488653Q668.994611732627 488.8246285595778 667.2300464844208 488.12440425473403Q665.4654812362146 487.4521889220841 664.4571582372396 486.8640005060153ZM680.0301467769644 415.35709449537205L680.0301467769644 415.35709449537205Q679.638021166252 415.35709449537205 679.1338596667645 414.7689060793033Q678.6577071394706 414.18071766323453 678.4616443341145 413.9846548578783L678.4616443341145 413.9846548578783Q679.2458955555394 411.82796399895955 680.4222723876769 409.2511385571346Q681.5986492198144 406.7023220875033 683.3632144680207 405.1338196446534Q685.1557886884207 403.56531720180334 687.4245154361145 403.45328131302836Q689.6652332116143 403.3412454242534 692.6341842641518 406.1141336714346L692.6341842641518 406.1141336714346Q695.183000733783 406.31019647679085 701.793118171508 405.52594525536585Q708.3752266370393 404.74169403394086 716.8619452117455 403.6493441183846Q725.320654814258 402.5569942028284 734.5916246103891 401.3806173706909Q743.8345854343265 400.2042405385534 751.7051066207703 399.4199893171284Q759.6036367794077 398.6357380957034 765.0933953293827 398.71976501228465Q770.6111628515514 398.83180090105964 771.5914768783325 400.00817773319716L771.5914768783325 400.00817773319716Q773.1879882933763 402.16486859211585 770.6111628515514 404.3495684232284Q768.0623463819202 406.5062592821471 762.7406416651077 408.4668873357096Q757.4189369482951 410.45552436146585 749.940541372564 412.1080537208971Q742.4621457968328 413.78859205252206 734.1714900274828 415.07700477343457Q725.9088432303266 416.365417494347 717.3380977390392 417.149668715772Q708.7673522477518 417.933919937197 701.4009925607955 418.01794685377826Q694.0066239016455 418.1299827425533 688.2927935741207 417.54179432648453Q682.5789632465957 416.9536059104158 680.0301467769644 415.35709449537205ZM787.9487166394824 481.1501701784903L787.9487166394824 481.1501701784903Q783.9994515601638 477.2009050991716 781.6466978958888 469.1343211073717Q779.2939442316138 461.06773711557173 778.3976571214139 450.8164532926593Q777.5013700112138 440.5651694697469 778.0895584272826 429.0534818981157Q778.705755815545 417.54179432648453 780.7504107856887 406.61829517092207Q782.8230747280263 395.6667870431659 786.2681783078574 386.2277634138722Q789.7132818876887 376.7607308123848 794.7548968825638 370.5707479575661Q799.768502905245 364.35275613055364 806.1545485654199 362.5041639657661Q812.5686031977887 360.6275628287849 820.4391243842322 364.7448817412661L820.4391243842322 364.7448817412661Q823.2120126314135 366.3413931563099 826.2649906005322 370.0665864580786Q829.3179685696509 373.81978873204105 832.0628478446383 378.44126914400977Q834.807727119626 383.06274955597854 836.8803910619633 387.712238940141Q838.953055004301 392.3337193521097 839.9333690310821 395.4707242378097L839.9333690310821 395.4707242378097Q840.1294318364385 396.4510382645909 840.045404919857 401.4926532594659Q839.9333690310821 406.5062592821471 839.7373062257259 413.5925292471658Q839.5412434203697 420.6787992121845 839.8493421145008 429.24954470347194Q840.1294318364385 437.82029019475937 841.2217817519945 445.9989100753343Q842.3141316675508 454.1775299559093 844.6668853318258 461.151764032153Q847.0196389961009 468.1540070805904 850.9689040754195 472.18729907649043Q854.9181691547383 476.2205910723904 860.9120892042008 476.5286897665216Q866.934018225857 476.80877948845915 875.5887906337257 471.6831375770029L875.5887906337257 471.6831375770029Q878.7257955194257 468.9382583020154 879.3419929076881 466.2774059436092Q879.9301813237569 463.61655358520295 879.9301813237569 461.7399524482217Q879.9301813237569 459.8633513112405 880.3223069344695 459.2751628951718Q880.7144325451818 458.68697447910296 883.8514374308818 460.28348589414674L883.8514374308818 460.28348589414674Q887.8007025102006 465.3811188334092 886.5122897892879 471.20698504970915Q885.2238770683757 477.00484229381533 880.7984594617631 481.43025990042787Q876.3730418551506 485.8836864792341 869.6788975008444 487.7322786440215Q862.9847531465382 489.60887978100277 855.9825100981009 486.8640005060153Q849.008276021857 484.0911122588341 842.7062572782634 475.63240265632163Q836.4042385346697 467.17369305380913 832.6510362607071 451.0125160980155L832.6510362607071 451.0125160980155Q831.4746594285698 454.37359276126557 829.0098698755196 459.2751628951718Q826.5450803224696 464.2047420012717 823.2120126314135 469.1343211073717Q819.8509359681634 474.06390021347164 815.6215811669074 478.3772819313091Q811.3922263656511 482.7186726213403 806.8547728702636 484.87536348025907Q802.3173193748762 487.06006331137155 797.4997761575512 486.55590181188404Q792.6822329402262 486.07974928459026 787.9487166394824 481.1501701784903ZM789.7132818876887 468.7421954966592L789.7132818876887 468.7421954966592Q793.0743585509388 475.82846546167787 797.6118120463261 476.4166538777466Q802.1212565695198 477.00484229381533 806.8547728702636 472.8875233813341Q811.5882891710073 468.7421954966592 816.2097695829762 460.87167431021544Q820.8312499949448 452.973144151578 824.0802907694197 443.02995902279685Q827.3293315438948 433.08677389401566 829.0098698755196 422.16327473845325Q830.6904082071446 411.2397755828908 829.5980582915886 401.1845545653346Q828.5057083760323 391.1573425199722 824.388389463551 382.86668675062225Q820.243061578876 374.60403995346604 811.7843519763635 369.87052365272234L811.7843519763635 369.87052365272234Q811.5882891710073 369.6744608473661 811.0841276715198 369.6744608473661Q810.6079751442262 369.6744608473661 810.2158495335136 369.6744608473661L810.2158495335136 369.6744608473661Q804.1098935952762 372.44734909454735 799.5724400998886 379.1414934488535Q795.0349866045012 385.8356378031597 791.7859458300261 394.88253582174093Q788.5369050555512 403.95744281251586 786.7723398073449 414.37678046859077Q785.0077745591389 424.82412709685946 784.8117117537824 434.8513391422219Q784.5876399762326 444.90656015977805 785.7920257805638 453.869431261778Q786.9684026127013 462.83230236377796 789.7132818876887 468.7421954966592ZM1017.5662706838434 485.49156086852156L1017.5662706838434 485.49156086852156Q1017.1741450731311 484.87536348025907 1016.5859566570621 483.69898664812155Q1015.9977682409935 482.5226098159841 1015.605642630281 481.2341970950716Q1015.2135170195684 479.9737933463528 1014.821391408856 478.96547034737785Q1014.4292657981434 477.9851563205966 1014.4292657981434 477.5930307098841L1014.4292657981434 477.5930307098841Q1014.6253286034998 475.24027704560916 1015.1294901029873 470.31069793950917Q1015.605642630281 465.3811188334092 1016.1098041297685 459.2751628951718Q1016.5859566570621 453.16920695693426 1017.0901181565496 446.2789997972718Q1017.5662706838434 439.38879263760936 1017.5662706838434 433.19880978279065Q1017.5662706838434 426.9808179557782 1017.0901181565496 421.855176044322Q1016.5859566570621 416.75754310505954 1015.2135170195684 413.9846548578783L1015.2135170195684 413.9846548578783Q1013.0568261606497 409.44720136249083 1008.8274713593935 407.2905105035721Q1004.5701075859436 405.1338196446534 999.6685374520373 404.74169403394086L999.6685374520373 404.74169403394086Q988.4369396023437 403.76138000715963 981.0425709431936 408.66295014106583Q973.6482022840437 413.5925292471658 968.9426949554938 421.7711491277407Q964.2091786547501 429.9497690083157 961.5483262963439 439.9769810536781Q958.8874739379376 450.0322020712343 957.0108728009563 459.19113597859047Q955.1622806361688 468.35006988594665 953.4817423045438 475.1282411568341Q951.801203972919 481.9344213999153 949.2523875032878 483.69898664812155L949.2523875032878 483.69898664812155Q947.2637504775314 485.0714262856153 946.0033467288126 484.6793006749028Q944.7149340079002 484.2871750641903 943.8186468977003 482.83070851011536Q942.9503687596939 481.3462329838466 942.3621803436251 479.46963184686535Q941.7459829553627 477.5930307098841 941.5499201500065 476.0245282670341L941.5499201500065 476.0245282670341Q941.7459829553627 468.7421954966592 942.6422700655628 458.2948488683905Q943.5385571757627 447.87551121231553 943.9306827864752 436.83997616797814Q944.3228083971876 425.80444112364074 943.8186468977003 415.66519318950327Q943.3424943704065 405.52594525536585 940.7656689285814 398.6357380957034L940.7656689285814 398.6357380957034Q937.8247268482378 390.34508232635346 934.4636501849877 388.7765798835035Q931.1305824939316 387.2080774406535 927.5734430253253 390.34508232635346Q924.0443125289128 393.5100961842472 920.5992089490817 400.4003033439096Q917.1541053692504 407.2905105035721 913.9890915113567 415.94528291144076Q910.8520866256567 424.6280642915032 908.0791983784754 434.06708792079695Q905.334319103488 443.53412052228435 903.2616551611504 451.90880320821555Q901.188991218813 460.28348589414674 899.8165515813193 466.3614328601904Q898.4441119438254 472.46738879842786 898.2480491384692 474.4560258241841L898.2480491384692 474.4560258241841Q897.6318517502068 478.3772819313091 895.0830352805756 478.5733447366653Q892.5342188109444 478.7694075420216 890.1534561744754 476.80877948845915Q887.8007025102006 474.84815143489664 886.9044154000005 471.48707477164663Q886.0361372619943 468.1540070805904 888.7810165369817 465.18505602805294L888.7810165369817 465.18505602805294Q888.9770793423381 461.8519883369967 888.9770793423381 454.9617811773343Q888.9770793423381 448.0715740176718 888.7810165369817 439.38879263760936Q888.5849537316255 430.7340202297407 888.4729178428506 421.070924822897Q888.3888909262694 411.4358383882471 888.3888909262694 402.5569942028284Q888.3888909262694 393.70615898960347 888.6689806482068 386.50785313580974Q888.9770793423381 379.3375562542098 889.5652677584069 375.38829117489104L889.5652677584069 375.38829117489104Q889.9573933691192 373.03553751061605 891.329833006613 372.72743881648483Q892.7302816163005 372.44734909454735 894.2987840591504 373.23160031597234Q895.8672865020005 374.01585153739734 897.155699222913 375.58435398024733Q898.4441119438254 377.1528564230973 898.836237554538 378.5533050327848L898.836237554538 378.5533050327848Q899.8165515813193 382.4745611399098 900.0966413032568 386.3117903304535Q900.4047399973881 390.14901952099723 900.6008028027443 394.0142576837347Q900.7968656081005 397.8514868742784 900.9929284134566 401.68871606482213Q901.188991218813 405.52594525536585 902.1693052455942 409.44720136249083L902.1693052455942 409.44720136249083Q903.9338704938004 405.7220080607221 906.9028215463379 400.4003033439096Q909.8437636266817 395.07859862709716 913.5969659006441 390.14901952099723Q917.3501681746066 385.24744938709097 921.5795229758628 381.4942471131285Q925.808877777119 377.741044839166 930.0382325783753 376.9567936177411Q934.2675873796315 376.17254239631603 938.2168524589501 379.22552036543476Q942.1381085660753 382.2784983345535 945.4991852293251 390.73720793706593L945.4991852293251 390.73720793706593Q946.4794992561065 393.5100961842472 947.3757863663063 397.7394509855034Q948.2440645043127 401.9688057867596 949.2523875032878 406.5062592821471Q950.2327015300689 411.04371277753455 951.6051411675626 415.2730675787908Q952.9775808050563 419.502422380047 954.7421460532626 421.855176044322L954.7421460532626 421.855176044322Q958.1032227165126 419.8945479907595 960.5680122695626 416.5614802997033Q963.0328018226126 413.2004036364533 965.4975913756625 409.5592372512658Q967.9623809287125 405.9180708660784 970.819296092475 402.5569942028284Q973.6482022840437 399.22392651177216 977.9895929740749 397.0392266806596L977.9895929740749 397.0392266806596Q992.5542585148248 392.1376565467534 1002.1053180328936 394.09828460031594Q1011.684386523156 396.05891265387845 1017.3702078784872 402.4729672862471Q1023.0840382060121 408.85901294642207 1025.548827759062 418.4100724644908Q1028.013617312112 427.96113198255944 1028.3217160062434 438.2124158054719Q1028.6018057281808 448.46369962838435 1027.229366090687 458.21082195180924Q1025.8569264531934 467.9579442752342 1023.868289427437 474.4560258241841L1023.868289427437 474.4560258241841L1025.2687380371246 476.0245282670341Q1026.249052063906 477.00484229381533 1029.8902184490933 474.6520886295404Q1033.5313848342807 472.2713259930717 1037.872775524312 469.3303839127279Q1042.1861572421494 466.3614328601904 1046.1354223214682 463.9246522793342Q1050.084687400787 461.45986272628426 1051.653189843637 462.04805114235296L1051.653189843637 462.04805114235296L1051.653189843637 465.18505602805294Q1050.084687400787 466.5855046377404 1047.8159606530933 469.41441082930913Q1045.5472339053995 472.2713259930717 1042.690318741637 475.43633985096534Q1039.8334035778746 478.5733447366653 1036.5843628033995 481.62632270578405Q1033.3353220289246 484.6793006749028 1030.0862812544497 486.4718748953028Q1026.8372404799745 488.236440143509 1023.5881997054996 488.236440143509Q1020.3391589310247 488.236440143509 1017.5662706838434 485.49156086852156ZM1191.2779162294798 485.49156086852156L1191.2779162294798 485.49156086852156Q1181.838892600186 482.7186726213403 1175.5368738565924 476.5286897665216Q1169.2348551129985 470.31069793950917 1165.481652839036 461.8519883369967Q1161.7284505650737 453.36526976229055 1160.35601092758 443.1419949115718Q1158.9835712900863 432.89071108865943 1159.571759706155 422.16327473845325Q1160.1599481222236 411.4358383882471 1162.5127017864986 400.5123392326846Q1164.8934644229676 389.56083110492847 1168.5346308081548 379.8137087815035Q1172.1757971933423 370.0665864580786 1176.7972776053111 362.0840293828599Q1181.4187580172797 354.129481279835 1186.7404627340923 348.80777656302246L1186.7404627340923 348.80777656302246Q1191.8661046455484 343.6821346515663 1196.403558140936 342.701820624785Q1200.9410116363233 341.72150659800377 1204.666204938092 343.374035957435Q1208.4194072120547 345.05457428906004 1211.3603492923983 349.00383936837875Q1214.3293003449357 352.9250954755037 1216.093865593142 357.5745848596662Q1217.8584308413483 362.1960652716349 1218.3625923408358 367.0136084889599Q1218.8387448681297 371.83115170628486 1217.774403924767 375.38829117489104Q1216.6820540092108 378.9454306434973 1214.0212016508046 380.79402280828475Q1211.3603492923983 382.670623945266 1206.822895797011 381.29818430777226L1206.822895797011 381.29818430777226Q1204.666204938092 378.74936783814104 1205.5624920482921 374.80010275882233Q1206.4307701862983 370.8508376795036 1207.3270572964984 366.8175456836036Q1208.2233444066985 362.78425368770365 1207.7191829072108 359.14308730251616Q1207.2430303799172 355.5019209173287 1202.3134512738172 353.5412928637662L1202.3134512738172 353.5412928637662Q1197.3838721677173 351.55265583800997 1193.042481477686 354.52160689054745Q1188.7290997598486 357.4625489708912 1185.087933374661 363.8766036032599Q1181.4187580172797 370.26264926343487 1178.5618428535174 379.22552036543476Q1175.7329366619485 388.1883914674347 1173.7442996361924 398.1315765962159Q1171.78367158263 408.0747617249971 1170.8873844724299 418.32604554790953Q1170.0191063344237 428.5493203986282 1170.103133251005 437.51219150062815Q1170.2151691397798 446.47506260262804 1171.5876087772735 453.36526976229055Q1172.9600484147672 460.28348589414674 1175.7329366619485 463.61655358520295L1175.7329366619485 463.61655358520295Q1179.8502555744299 468.54613269130294 1184.6677987917549 471.2910119662904Q1189.5133509812736 474.06390021347164 1194.8350556980859 475.24027704560916Q1200.1287514427047 476.4166538777466 1205.9546176590047 476.4166538777466Q1211.7524749031109 476.4166538777466 1217.662368035992 476.0245282670341L1217.662368035992 476.0245282670341Q1224.5525751956545 475.63240265632163 1230.2664055231794 472.77548749255914Q1235.9802358507045 469.91857232879664 1241.3019405675168 466.3614328601904Q1246.6236452843293 462.83230236377796 1251.7492871957857 459.38719878394676Q1256.846920135048 455.9420952041155 1262.7568132679294 454.37359276126557L1262.7568132679294 454.37359276126557Q1270.067155010498 452.18889293015303 1270.9354331485042 454.653682483203Q1271.8317202587043 457.11847203625297 1267.7984282628042 461.6559255316405Q1263.7651362669042 466.16537005483417 1255.7825791916855 471.7951734657779Q1247.8000221164668 477.39696790452786 1237.3526754881982 481.5422957892028Q1226.9333378321232 485.6876236738778 1215.0015156775858 487.2561261167278Q1203.0977024952422 488.8246285595778 1191.2779162294798 485.49156086852156ZM1360.2560454743723 480.75804456777786L1360.2560454743723 480.75804456777786Q1361.4324223065098 444.1223089383531 1357.2030675052536 421.7711491277407Q1352.9737127039973 399.4199893171284 1345.7754068502038 389.7568939102847Q1338.57710099641 380.12180747563474 1329.9223285885414 382.2784983345535Q1321.2675561806725 384.43518919347224 1313.4810619108102 396.5630741533659Q1305.6945676409478 408.66295014106583 1300.0927732021978 429.75370620295945Q1294.4629697912542 450.8164532926593 1293.6787185698292 479.18954212492787L1293.6787185698292 479.18954212492787Q1292.894467348404 481.5422957892028 1291.3259649055542 481.43025990042787Q1289.757462462704 481.3462329838466 1288.1609510476603 479.9737933463528Q1286.5924486048104 478.5733447366653 1285.416071772673 476.5286897665216Q1284.2396949405354 474.4560258241841 1284.2396949405354 472.8875233813341L1284.2396949405354 472.8875233813341Q1284.2396949405354 472.0752631877154 1284.519784662473 469.1343211073717Q1284.8278833566042 466.16537005483417 1285.1079730785416 462.83230236377796Q1285.416071772673 459.47122570052795 1285.612134578029 456.53028362018426Q1285.8081973833853 453.5613325676468 1285.8081973833853 452.7770813462218L1285.8081973833853 452.7770813462218Q1285.8081973833853 451.0125160980155 1285.9202332721604 447.1752869074718Q1286.0042601887415 443.33805771692806 1286.0042601887415 438.4084786108281Q1286.0042601887415 433.47889950472813 1286.0042601887415 428.0731678713344Q1286.0042601887415 422.66743623794076 1286.0042601887415 417.821884048422Q1286.0042601887415 413.00434083109707 1285.9202332721604 409.05507575177836Q1285.8081973833853 405.1338196446534 1285.8081973833853 403.14518261889714L1285.8081973833853 403.14518261889714Q1285.8081973833853 402.16486859211585 1285.612134578029 398.9158278176409Q1285.416071772673 395.6667870431659 1285.2200089673167 392.02562065797844Q1285.0239461619603 388.38445427279095 1284.7158474678292 384.93935069295975Q1284.4357577458916 381.4942471131285 1284.2396949405354 379.9257446702785L1284.2396949405354 379.9257446702785Q1284.2396949405354 378.9454306434973 1283.735533441048 375.30426425830984Q1283.259380913754 371.63508890092857 1282.7552194142665 367.4057340996724Q1282.251057914779 363.1763792984161 1281.8589323040667 359.53521291322863Q1281.4668066933543 355.8940465280412 1281.270743887998 354.9137325012599L1281.270743887998 354.9137325012599Q1280.6825554719292 348.6117137576662 1282.8672553030417 347.51936384211Q1285.0239461619603 346.42701392655374 1288.9732112412792 351.9447814487225L1288.9732112412792 351.9447814487225Q1290.541713684129 368.1059584045161 1291.129902100198 383.7629738608223Q1291.7180905162666 399.4199893171284 1293.6787185698292 415.35709449537205L1293.6787185698292 415.35709449537205Q1295.471292790229 409.44720136249083 1298.1041361764417 402.86509289695965Q1300.7649885348478 396.2549754592347 1304.4061549200353 390.34508232635346Q1308.0753302774165 384.43518919347224 1313.0889363000977 379.9257446702785Q1318.102542322779 375.38829117489104 1324.6006238717289 373.6237259266848L1324.6006238717289 373.6237259266848Q1333.2834052517912 371.04690048485986 1339.5854239953849 373.03553751061605Q1345.8874427389787 374.99616556417857 1350.3128603455914 380.00977158685976Q1354.7382779522038 385.05138658173473 1357.4831572271912 392.52978215746595Q1360.2560454743723 400.00817773319716 1362.0206107225786 408.66295014106583Q1363.7851759707848 417.34573152112824 1364.5974361644037 426.50466542848443Q1365.3816873858286 435.6635993358406 1365.9698758018974 443.9262461329968Q1366.558064217966 452.18889293015303 1366.9501898286787 458.99507317323423Q1367.342315439391 465.77324444412164 1368.1265666608163 469.91857232879664L1368.1265666608163 469.91857232879664Q1368.7147550768848 473.0835861866904 1371.0955177133535 473.55973871398413Q1373.4482713776285 474.06390021347164 1375.4088994311912 474.54005274076536Q1377.3975364569471 475.04421424025287 1377.6776261788848 476.7247525718779Q1377.9857248730161 478.3772819313091 1374.42858540441 483.69898664812155L1374.42858540441 483.69898664812155Q1373.0561457669162 485.6876236738778 1370.591356213866 486.667937700659Q1368.1265666608163 487.64825172744025 1365.661777107766 487.5362158386653Q1363.196987554716 487.4521889220841 1361.544458195285 485.77165059045905Q1359.86391986366 484.0911122588341 1360.2560454743723 480.75804456777786ZM1390.3936995548472 481.1501701784903L1390.3936995548472 481.1501701784903Q1386.4444344755286 477.2009050991716 1384.0916808112536 469.1343211073717Q1381.7109181747849 461.06773711557173 1380.8426400367787 450.8164532926593Q1379.9463529265786 440.5651694697469 1380.5345413426473 429.0534818981157Q1381.1227297587159 417.54179432648453 1383.1953937010533 406.61829517092207Q1385.2680576433909 395.6667870431659 1388.7131612232222 386.2277634138722Q1392.1582648030535 376.7607308123848 1397.1718708257347 370.5707479575661Q1402.1854768484159 364.35275613055364 1408.5995314807844 362.5041639657661Q1415.0135861131532 360.6275628287849 1422.884107299597 364.7448817412661L1422.884107299597 364.7448817412661Q1425.6289865745846 366.3413931563099 1428.681964543703 370.0665864580786Q1431.734942512822 373.81978873204105 1434.5078307600031 378.44126914400977Q1437.2527100349907 383.06274955597854 1439.3253739773284 387.712238940141Q1441.3980379196657 392.3337193521097 1442.3783519464466 395.4707242378097L1442.3783519464466 395.4707242378097Q1442.574414751803 396.4510382645909 1442.462378863028 401.4926532594659Q1442.3783519464466 406.5062592821471 1442.1822891410905 413.5925292471658Q1441.9862263357343 420.6787992121845 1442.266316057672 429.24954470347194Q1442.574414751803 437.82029019475937 1443.6667646673593 445.9989100753343Q1444.731105610722 454.1775299559093 1447.1118682471904 461.151764032153Q1449.4646219114654 468.1540070805904 1453.4138869907842 472.18729907649043Q1457.3351430979094 476.2205910723904 1463.3570721195654 476.5286897665216Q1469.350992169028 476.80877948845915 1478.0337735490905 471.6831375770029L1478.0337735490905 471.6831375770029Q1481.1707784347902 468.9382583020154 1481.7589668508592 466.2774059436092Q1482.3471552669278 463.61655358520295 1482.3471552669278 461.7399524482217Q1482.3471552669278 459.8633513112405 1482.7392808776403 459.2751628951718Q1483.131406488353 458.68697447910296 1486.2964203462464 460.28348589414674L1486.2964203462464 460.28348589414674Q1490.2176764533715 465.3811188334092 1488.9572727046527 471.20698504970915Q1487.66885998374 477.00484229381533 1483.2434423771278 481.43025990042787Q1478.8180247705154 485.8836864792341 1472.1238804162092 487.7322786440215Q1465.429736061903 489.60887978100277 1458.4274930134654 486.8640005060153Q1451.4252499650281 484.0911122588341 1445.1232312214343 475.63240265632163Q1438.8212124778406 467.17369305380913 1435.0960191760719 451.0125160980155L1435.0960191760719 451.0125160980155Q1433.9196423439344 454.37359276126557 1431.4548527908844 459.2751628951718Q1428.9900632378344 464.2047420012717 1425.6289865745846 469.1343211073717Q1422.2959188835282 474.06390021347164 1418.0385551100783 478.3772819313091Q1413.809200308822 482.7186726213403 1409.2997557856281 484.87536348025907Q1404.762302290241 487.06006331137155 1399.9447590729158 486.55590181188404Q1395.099206883397 486.07974928459026 1390.3936995548472 481.1501701784903ZM1392.1582648030535 468.7421954966592L1392.1582648030535 468.7421954966592Q1395.4913324941097 475.82846546167787 1400.028785989497 476.4166538777466Q1404.5662394848846 477.00484229381533 1409.2997557856281 472.8875233813341Q1414.0052631141782 468.7421954966592 1418.654752498341 460.87167431021544Q1423.2762329103095 452.973144151578 1426.5252736847845 443.02995902279685Q1429.7743144592594 433.08677389401566 1431.4548527908844 422.16327473845325Q1433.1073821503155 411.2397755828908 1432.0430412069531 401.1845545653346Q1430.9506912913969 391.1573425199722 1426.8053634067219 382.86668675062225Q1422.6880444942408 374.60403995346604 1414.2013259195344 369.87052365272234L1414.2013259195344 369.87052365272234Q1414.0052631141782 369.6744608473661 1413.5291105868846 369.6744608473661Q1413.024949087397 369.6744608473661 1412.6328234766845 369.6744608473661L1412.6328234766845 369.6744608473661Q1406.526867538447 372.44734909454735 1401.9894140430597 379.1414934488535Q1397.479969519866 385.8356378031597 1394.2309287453909 394.88253582174093Q1390.981887970916 403.95744281251586 1389.189313750516 414.37678046859077Q1387.4247485023095 424.82412709685946 1387.2286856969533 434.8513391422219Q1387.0326228915972 444.90656015977805 1388.2089997237347 453.869431261778Q1389.3853765558722 462.83230236377796 1392.1582648030535 468.7421954966592ZM1512.876934958115 486.8640005060153L1512.876934958115 486.8640005060153Q1512.876934958115 483.1107982320528 1513.1850336522464 476.80877948845915Q1513.4651233741836 470.5067607448654 1513.6611861795402 463.02836516913425Q1513.8572489848964 455.549969593403 1513.8572489848964 447.6794484069593Q1513.8572489848964 439.7809182483218 1513.4651233741836 432.89071108865943Q1513.0729977634712 426.000503928997 1512.1767106532714 420.87486201754075Q1511.3084325152652 415.7492201060845 1509.7399300724153 413.9846548578783L1509.7399300724153 413.9846548578783Q1497.3319553905837 414.9649688846595 1490.833873841634 413.78859205252206Q1484.3357922926841 412.61221522038454 1484.223756403909 410.6515871668221Q1484.111720515134 408.66295014106583 1490.833873841634 406.3942233933721Q1497.52801819594 404.1535056178721 1511.5044953206213 403.14518261889714L1511.5044953206213 403.14518261889714Q1511.5044953206213 400.79242895462215 1511.5885222372028 394.7985089051597Q1511.7005581259775 388.7765798835035 1511.7005581259775 382.08243552919726Q1511.7005581259775 375.38829117489104 1511.5885222372028 369.47839804200987Q1511.5044953206213 363.56850490912865 1511.5044953206213 361.21575124485366L1511.5044953206213 361.21575124485366Q1511.3084325152652 359.8433116073599 1510.9163069045528 357.4625489708912Q1510.5241812938402 355.1097953066162 1510.1320556831276 352.44894294820995Q1509.7399300724153 349.78809058980374 1509.5438672670587 347.1272382313975Q1509.3197954895088 344.4663858729913 1509.7399300724153 342.701820624785L1509.7399300724153 342.701820624785Q1510.1320556831276 340.3210579883163 1511.784585042559 339.4527798503101Q1513.4651233741836 338.55649274011006 1515.22968862239 338.66852862888504Q1517.0222628427903 338.7525555454663 1518.478729396865 339.84490546102256Q1519.9632049231338 340.93725537657883 1519.9632049231338 342.701820624785L1519.9632049231338 342.701820624785L1519.9632049231338 401.5766801760471Q1519.9632049231338 403.56531720180334 1524.8927840292338 403.45328131302836Q1529.8223631353337 403.3412454242534 1536.9086331003525 402.5569942028284Q1543.994903065371 401.7727429814034 1551.7813973352336 400.90446484339714Q1559.5398826329024 400.00817773319716 1565.169686043846 400.4003033439096Q1570.7714804825962 400.79242895462215 1572.760117508352 403.0611557023159Q1574.7207455619148 405.3298824500096 1570.3793548718834 410.8476499721783L1570.3793548718834 410.8476499721783Q1569.987229261171 411.2397755828908 1568.8108524290335 411.82796399895955Q1567.634475596896 412.4161524150283 1567.2423499861836 412.4161524150283L1567.2423499861836 412.4161524150283Q1556.5989405525586 412.02402680431584 1544.779154286796 412.2200896096721Q1532.959368021034 412.4161524150283 1522.3439675596026 413.9846548578783L1522.3439675596026 413.9846548578783Q1518.7868280909963 414.57284327394706 1518.478729396865 420.59477229560326Q1518.1986396749276 426.5886923450657 1519.48705239584 435.27147372512815Q1520.7474561445588 443.9262461329968 1522.427994476184 453.67336845642177Q1524.1085328078086 463.4204907798467 1524.5006584185214 471.48707477164663Q1524.8927840292338 479.58166773564034 1522.8201200868964 484.5952737583215Q1520.7474561445588 489.60887978100277 1514.4454374009651 488.4325029488653L1514.4454374009651 488.4325029488653Q1514.0533117902526 488.4325029488653 1513.4651233741836 487.84431453279655Q1512.876934958115 487.2561261167278 1512.876934958115 486.8640005060153Z " fill="#7d141d" transform="matrix(0.556131036927318,0,0,0.556131036927318,0,69.95301870576756)"/></g></svg>